<svg xmlns="http://www.w3.org/2000/svg" viewBox="0 0 24 24" fill="none" stroke="currentColor" stroke-width="2" stroke-linecap="round" stroke-linejoin="round">
  <path d="M9.5 2A2.5 2.5 0 0 1 12 4.5v15a2.5 2.5 0 0 1-2.5 2.5A2.5 2.5 0 0 1 7 19.5v-15A2.5 2.5 0 0 1 9.5 2Z"/>
  <path d="M14.5 2A2.5 2.5 0 0 0 12 4.5v15a2.5 2.5 0 0 0 2.5 2.5A2.5 2.5 0 0 0 17 19.5v-15A2.5 2.5 0 0 0 14.5 2Z"/>
  <path d="M12 4.5c1.5-1.5 3.5-1.5 5 0s1.5 3.5 0 5c1.5 1.5 1.5 3.5 0 5s-3.5 1.5-5 0"/>
  <path d="M12 4.5c-1.5-1.5-3.5-1.5-5 0s-1.5 3.5 0 5c-1.5 1.5-1.5 3.5 0 5s3.5 1.5 5 0"/>
  <circle cx="12" cy="12" r="1"/>
  <circle cx="9" cy="8" r="0.5"/>
  <circle cx="15" cy="8" r="0.5"/>
  <circle cx="9" cy="16" r="0.5"/>
  <circle cx="15" cy="16" r="0.5"/>
</svg>